<?xml version="1.0" encoding="UTF-8"?>
<!DOCTYPE svg PUBLIC "-//W3C//DTD SVG 1.1//EN" "http://www.w3.org/Graphics/SVG/1.1/DTD/svg11.dtd">
<svg xmlns="http://www.w3.org/2000/svg" version="1.1" width="82px" height="53px" style="shape-rendering:geometricPrecision; text-rendering:geometricPrecision; image-rendering:optimizeQuality; fill-rule:evenodd; clip-rule:evenodd" xmlns:xlink="http://www.w3.org/1999/xlink">
<g><path style="opacity:0.031" fill="#141424" d="M 55.5,5.5 C 55.1667,5.5 54.8333,5.5 54.5,5.5C 50.7657,5.32274 47.0991,5.65608 43.5,6.5C 43.6107,5.88258 43.944,5.38258 44.5,5C 48.3575,4.19007 52.0242,4.35673 55.5,5.5 Z"/></g>
<g><path style="opacity:1" fill="#a2a0ad" d="M 54.5,5.5 C 53.4324,6.43448 52.099,6.76781 50.5,6.5C 47.809,6.93341 45.809,8.26674 44.5,10.5C 44.6495,9.44802 44.4828,8.44802 44,7.5C 43.3292,8.25244 42.4959,8.58577 41.5,8.5C 41.5,7.16667 42.1667,6.5 43.5,6.5C 47.0991,5.65608 50.7657,5.32274 54.5,5.5 Z"/></g>
<g><path style="opacity:0.733" fill="#4a4951" d="M 54.5,5.5 C 54.8333,5.5 55.1667,5.5 55.5,5.5C 56.562,7.09922 56.562,8.76589 55.5,10.5C 55.1667,10.5 54.8333,10.5 54.5,10.5C 54.6495,9.44802 54.4828,8.44802 54,7.5C 53.6232,8.94227 52.7899,9.94227 51.5,10.5C 51.4142,9.5041 51.7476,8.67076 52.5,8C 51.5842,7.72158 50.9175,7.22158 50.5,6.5C 52.099,6.76781 53.4324,6.43448 54.5,5.5 Z"/></g>
<g><path style="opacity:0.961" fill="#c3c2cb" d="M 44.5,10.5 C 44.5,10.8333 44.5,11.1667 44.5,11.5C 42.1205,12.5669 41.1205,11.5669 41.5,8.5C 42.4959,8.58577 43.3292,8.25244 44,7.5C 44.4828,8.44802 44.6495,9.44802 44.5,10.5 Z"/></g>
<g><path style="opacity:1" fill="#c6c4d1" d="M 54.5,10.5 C 53.0937,10.9731 52.427,11.9731 52.5,13.5C 51.596,12.791 51.2627,11.791 51.5,10.5C 52.7899,9.94227 53.6232,8.94227 54,7.5C 54.4828,8.44802 54.6495,9.44802 54.5,10.5 Z"/></g>
<g><path style="opacity:0.933" fill="#7c7a84" d="M 55.5,10.5 C 58.491,10.1663 60.8243,11.1663 62.5,13.5C 62.1583,14.3382 61.4916,14.6716 60.5,14.5C 59.7095,13.5987 58.7095,12.9321 57.5,12.5C 56.8333,12.5 56.1667,12.5 55.5,12.5C 55.5,12.1667 55.5,11.8333 55.5,11.5C 55.5,11.1667 55.5,10.8333 55.5,10.5 Z"/></g>
<g><path style="opacity:1" fill="#888692" d="M 23.5,11.5 C 24.1667,12.1667 24.8333,12.8333 25.5,13.5C 24.391,13.5569 23.391,13.8902 22.5,14.5C 22.1583,13.6618 21.4916,13.3284 20.5,13.5C 20.9731,12.0937 21.9731,11.427 23.5,11.5 Z"/></g>
<g><path style="opacity:0.835" fill="#b7b5c1" d="M 26.5,11.5 C 26.7678,13.099 26.4345,14.4324 25.5,15.5C 25.5,14.8333 25.5,14.1667 25.5,13.5C 24.8333,12.8333 24.1667,12.1667 23.5,11.5C 24.5,10.1667 25.5,10.1667 26.5,11.5 Z"/></g>
<g><path style="opacity:0.99" fill="#83818e" d="M 41.5,8.5 C 41.1205,11.5669 42.1205,12.5669 44.5,11.5C 44.0075,13.8185 43.0075,15.8185 41.5,17.5C 41.5,16.5 41.5,15.5 41.5,14.5C 41.1583,13.6618 40.4916,13.3284 39.5,13.5C 39.7959,11.597 40.4625,9.93033 41.5,8.5 Z"/></g>
<g><path style="opacity:1" fill="#777583" d="M 51.5,10.5 C 51.2627,11.791 51.596,12.791 52.5,13.5C 52.7373,14.791 52.404,15.791 51.5,16.5C 51.6716,15.5084 51.3382,14.8417 50.5,14.5C 50.2322,12.901 50.5655,11.5676 51.5,10.5 Z"/></g>
<g><path style="opacity:0.308" fill="#4b4951" d="M 57.5,12.5 C 58.7095,12.9321 59.7095,13.5987 60.5,14.5C 58.0243,16.6094 58.0243,18.9427 60.5,21.5C 59.5041,21.5858 58.6708,21.2524 58,20.5C 57.5026,17.854 57.3359,15.1873 57.5,12.5 Z"/></g>
<g><path style="opacity:0.873" fill="#afadbc" d="M 20.5,13.5 C 21.4916,13.3284 22.1583,13.6618 22.5,14.5C 21.5,15.1667 20.5,15.8333 19.5,16.5C 18.5084,16.6716 17.8417,16.3382 17.5,15.5C 17.9731,14.0937 18.9731,13.427 20.5,13.5 Z"/></g>
<g><path style="opacity:0.013" fill="#101015" d="M 54.5,10.5 C 54.5,11.1667 54.8333,11.5 55.5,11.5C 55.5,11.8333 55.5,12.1667 55.5,12.5C 54.8333,12.5 54.5,12.8333 54.5,13.5C 53.5489,14.9187 53.2155,16.5853 53.5,18.5C 52.8333,18.5 52.1667,18.5 51.5,18.5C 51.5,17.8333 51.5,17.1667 51.5,16.5C 52.404,15.791 52.7373,14.791 52.5,13.5C 52.427,11.9731 53.0937,10.9731 54.5,10.5 Z"/></g>
<g><path style="opacity:1" fill="#b6b4be" d="M 55.5,12.5 C 56.2653,15.0961 56.5987,17.7628 56.5,20.5C 54.6565,18.7211 53.9898,16.3878 54.5,13.5C 54.5,12.8333 54.8333,12.5 55.5,12.5 Z"/></g>
<g><path style="opacity:0.714" fill="#6e6c79" d="M 62.5,13.5 C 64.0269,13.427 65.0269,14.0937 65.5,15.5C 64.5084,15.3284 63.8417,15.6618 63.5,16.5C 62.2905,16.0679 61.2905,15.4013 60.5,14.5C 61.4916,14.6716 62.1583,14.3382 62.5,13.5 Z"/></g>
<g><path style="opacity:0.816" fill="#a4a2ae" d="M 26.5,11.5 C 27.4731,13.9479 27.8064,16.6146 27.5,19.5C 26.8333,19.5 26.1667,19.5 25.5,19.5C 25.5,18.1667 25.5,16.8333 25.5,15.5C 26.4345,14.4324 26.7678,13.099 26.5,11.5 Z"/></g>
<g><path style="opacity:0.914" fill="#8d8c92" d="M 39.5,13.5 C 40.4916,13.3284 41.1583,13.6618 41.5,14.5C 40.5,15.5 39.5,16.5 38.5,17.5C 38.1667,17.5 37.8333,17.5 37.5,17.5C 37.6596,15.847 38.3263,14.5137 39.5,13.5 Z"/></g>
<g><path style="opacity:0.847" fill="#908d9b" d="M 17.5,15.5 C 17.8417,16.3382 18.5084,16.6716 19.5,16.5C 18.7095,17.4013 17.7095,18.0679 16.5,18.5C 16.1583,17.6618 15.4916,17.3284 14.5,17.5C 14.9731,16.0937 15.9731,15.427 17.5,15.5 Z"/></g>
<g><path style="opacity:1" fill="#848290" d="M 50.5,14.5 C 51.3382,14.8417 51.6716,15.5084 51.5,16.5C 51.5,17.1667 51.5,17.8333 51.5,18.5C 51.1667,19.5 50.5,20.1667 49.5,20.5C 49.6716,19.5084 49.3382,18.8417 48.5,18.5C 48.6596,16.847 49.3263,15.5137 50.5,14.5 Z"/></g>
<g><path style="opacity:0.596" fill="#696773" d="M 54.5,13.5 C 53.9898,16.3878 54.6565,18.7211 56.5,20.5C 56.5,20.8333 56.5,21.1667 56.5,21.5C 55.6618,21.8417 55.3284,22.5084 55.5,23.5C 53.7868,22.3646 53.1201,20.698 53.5,18.5C 53.2155,16.5853 53.5489,14.9187 54.5,13.5 Z"/></g>
<g><path style="opacity:0.871" fill="#908e97" d="M 65.5,15.5 C 66.4916,15.3284 67.1583,15.6618 67.5,16.5C 66.8333,16.5 66.5,16.8333 66.5,17.5C 65.209,17.7373 64.209,17.404 63.5,16.5C 63.8417,15.6618 64.5084,15.3284 65.5,15.5 Z"/></g>
<g><path style="opacity:1" fill="#d3d2da" d="M 55.5,12.5 C 56.1667,12.5 56.8333,12.5 57.5,12.5C 57.3359,15.1873 57.5026,17.854 58,20.5C 58.6708,21.2524 59.5041,21.5858 60.5,21.5C 59.2946,22.6857 57.9613,22.6857 56.5,21.5C 56.5,21.1667 56.5,20.8333 56.5,20.5C 56.5987,17.7628 56.2653,15.0961 55.5,12.5 Z"/></g>
<g><path style="opacity:0.992" fill="#94929f" d="M 67.5,16.5 C 69.4341,17.1103 71.1007,18.1103 72.5,19.5C 71.5084,19.3284 70.8417,19.6618 70.5,20.5C 68.7697,19.9744 67.4363,18.9744 66.5,17.5C 66.5,16.8333 66.8333,16.5 67.5,16.5 Z"/></g>
<g><path style="opacity:0.788" fill="#9d9ba9" d="M 14.5,17.5 C 15.4916,17.3284 16.1583,17.6618 16.5,18.5C 15.3951,19.6005 14.0618,20.2671 12.5,20.5C 12.5,19.8333 12.1667,19.5 11.5,19.5C 11.9731,18.0937 12.9731,17.427 14.5,17.5 Z"/></g>
<g><path style="opacity:0.988" fill="#a5a3aa" d="M 41.5,14.5 C 41.5,15.5 41.5,16.5 41.5,17.5C 41.5979,19.5529 40.9313,21.2196 39.5,22.5C 39.3713,20.7839 39.038,19.1172 38.5,17.5C 39.5,16.5 40.5,15.5 41.5,14.5 Z"/></g>
<g><path style="opacity:0.816" fill="#888691" d="M 25.5,19.5 C 26.1667,19.5 26.8333,19.5 27.5,19.5C 27.7148,21.1788 27.0481,22.1788 25.5,22.5C 25.5,21.8333 25.1667,21.5 24.5,21.5C 24.3284,20.5084 24.6618,19.8417 25.5,19.5 Z"/></g>
<g><path style="opacity:0.875" fill="#a2a0ae" d="M 48.5,18.5 C 49.3382,18.8417 49.6716,19.5084 49.5,20.5C 49.6716,21.4916 49.3382,22.1583 48.5,22.5C 47.596,21.791 47.2627,20.791 47.5,19.5C 47.5,18.8333 47.8333,18.5 48.5,18.5 Z"/></g>
<g><path style="opacity:0.784" fill="#a09fa8" d="M 72.5,19.5 C 73.5,19.8333 74.1667,20.5 74.5,21.5C 73.5,21.5 72.5,21.5 71.5,21.5C 70.8333,21.5 70.5,21.1667 70.5,20.5C 70.8417,19.6618 71.5084,19.3284 72.5,19.5 Z"/></g>
<g><path style="opacity:1" fill="#9b9aa3" d="M 37.5,17.5 C 37.8333,17.5 38.1667,17.5 38.5,17.5C 39.038,19.1172 39.3713,20.7839 39.5,22.5C 39.6716,23.4916 39.3382,24.1583 38.5,24.5C 38.6567,23.1266 38.49,21.7932 38,20.5C 37.7216,21.4158 37.2216,22.0825 36.5,22.5C 36.5,21.8333 36.5,21.1667 36.5,20.5C 36.5569,19.391 36.8902,18.391 37.5,17.5 Z"/></g>
<g><path style="opacity:0.827" fill="#aeabbd" d="M 11.5,19.5 C 12.1667,19.5 12.5,19.8333 12.5,20.5C 11.4206,22.543 9.75398,23.8763 7.5,24.5C 7.5,23.8333 7.5,23.1667 7.5,22.5C 8.43634,21.0256 9.76967,20.0256 11.5,19.5 Z"/></g>
<g><path style="opacity:0.851" fill="#9d9aa8" d="M 24.5,21.5 C 25.1667,21.5 25.5,21.8333 25.5,22.5C 24.7095,23.4013 23.7095,24.0679 22.5,24.5C 21.5084,24.6716 20.8417,24.3382 20.5,23.5C 21.287,21.8958 22.6203,21.2291 24.5,21.5 Z"/></g>
<g><path style="opacity:0.839" fill="#6d6b78" d="M 47.5,19.5 C 47.2627,20.791 47.596,21.791 48.5,22.5C 48.7373,23.791 48.404,24.791 47.5,25.5C 47.5912,23.3023 46.9245,22.9689 45.5,24.5C 45.7959,22.597 46.4625,20.9303 47.5,19.5 Z"/></g>
<g><path style="opacity:1" fill="#98979f" d="M 56.5,21.5 C 57.9613,22.6857 59.2946,22.6857 60.5,21.5C 62.0269,21.427 63.0269,22.0937 63.5,23.5C 60.7524,23.4017 60.0857,24.4017 61.5,26.5C 59.1815,26.0075 57.1815,25.0075 55.5,23.5C 55.3284,22.5084 55.6618,21.8417 56.5,21.5 Z"/></g>
<g><path style="opacity:0.855" fill="#8f8d97" d="M 71.5,21.5 C 72.5,21.5 73.5,21.5 74.5,21.5C 80.7026,24.2982 81.036,27.6316 75.5,31.5C 75.6716,30.5084 75.3382,29.8417 74.5,29.5C 75.3909,28.7387 76.0576,27.7387 76.5,26.5C 75.1455,24.4788 73.4788,22.8121 71.5,21.5 Z"/></g>
<g><path style="opacity:0.816" fill="#92919b" d="M 7.5,22.5 C 7.5,23.1667 7.5,23.8333 7.5,24.5C 6.59464,25.7024 6.59464,27.0357 7.5,28.5C 6.14294,27.4097 5.14294,26.0764 4.5,24.5C 4.97306,23.0937 5.97306,22.427 7.5,22.5 Z"/></g>
<g><path style="opacity:1" fill="#d6d5df" d="M 38.5,24.5 C 37.609,25.1098 36.609,25.4431 35.5,25.5C 36.1098,24.609 36.4431,23.609 36.5,22.5C 37.2216,22.0825 37.7216,21.4158 38,20.5C 38.49,21.7932 38.6567,23.1266 38.5,24.5 Z"/></g>
<g><path style="opacity:0.812" fill="#5d5b64" d="M 18.5,24.5 C 18.8417,23.6618 19.5084,23.3284 20.5,23.5C 20.8417,24.3382 21.5084,24.6716 22.5,24.5C 21.8333,25.5 21.1667,26.5 20.5,27.5C 19.8333,26.5 19.1667,25.5 18.5,24.5 Z"/></g>
<g><path style="opacity:0.816" fill="#9390a0" d="M 47.5,25.5 C 47.0679,26.7095 46.4013,27.7095 45.5,28.5C 45.6716,27.5084 45.3382,26.8417 44.5,26.5C 44.3284,25.5084 44.6618,24.8417 45.5,24.5C 46.9245,22.9689 47.5912,23.3023 47.5,25.5 Z"/></g>
<g><path style="opacity:1" fill="#d2d1d8" d="M 63.5,23.5 C 64.4908,25.1227 63.8241,26.1227 61.5,26.5C 60.0857,24.4017 60.7524,23.4017 63.5,23.5 Z"/></g>
<g><path style="opacity:0.773" fill="#717078" d="M 36.5,20.5 C 36.5,21.1667 36.5,21.8333 36.5,22.5C 36.4431,23.609 36.1098,24.609 35.5,25.5C 35.5,25.8333 35.5,26.1667 35.5,26.5C 34.8333,26.8333 34.1667,27.1667 33.5,27.5C 33.7073,24.7594 34.7073,22.4261 36.5,20.5 Z"/></g>
<g><path style="opacity:0.875" fill="#7c7b82" d="M 38.5,24.5 C 38.2041,26.403 37.5375,28.0697 36.5,29.5C 36.7373,28.209 36.404,27.209 35.5,26.5C 35.5,26.1667 35.5,25.8333 35.5,25.5C 36.609,25.4431 37.609,25.1098 38.5,24.5 Z"/></g>
<g><path style="opacity:0.996" fill="#94939f" d="M 18.5,24.5 C 19.1667,25.5 19.8333,26.5 20.5,27.5C 21.7095,27.9321 22.7095,28.5987 23.5,29.5C 22.5084,29.3284 21.8417,29.6618 21.5,30.5C 19.1764,29.6702 17.1764,28.3369 15.5,26.5C 16.3569,25.5748 17.3569,24.9081 18.5,24.5 Z"/></g>
<g><path style="opacity:0.902" fill="#9e9ca7" d="M 63.5,23.5 C 65.3936,24.0476 67.0603,25.0476 68.5,26.5C 68.0431,27.2975 67.3764,27.6309 66.5,27.5C 64.8333,27.5 63.1667,27.5 61.5,27.5C 61.5,27.1667 61.5,26.8333 61.5,26.5C 63.8241,26.1227 64.4908,25.1227 63.5,23.5 Z"/></g>
<g><path style="opacity:0.992" fill="#c9c7d1" d="M 4.5,24.5 C 5.14294,26.0764 6.14294,27.4097 7.5,28.5C 7.5,29.1667 7.5,29.8333 7.5,30.5C 6.22235,30.2178 5.22235,29.5511 4.5,28.5C 3.16667,28.5 2.5,27.8333 2.5,26.5C 2.83333,25.5 3.5,24.8333 4.5,24.5 Z"/></g>
<g><path style="opacity:0.831" fill="#a2a0ac" d="M 44.5,26.5 C 45.3382,26.8417 45.6716,27.5084 45.5,28.5C 45.5674,29.9587 45.2341,31.2921 44.5,32.5C 43.5655,31.4324 43.2322,30.099 43.5,28.5C 43.3284,27.5084 43.6618,26.8417 44.5,26.5 Z"/></g>
<g><path style="opacity:0.835" fill="#9f9da7" d="M 61.5,27.5 C 63.1667,27.5 64.8333,27.5 66.5,27.5C 65.7095,28.4013 64.7095,29.0679 63.5,29.5C 62.5084,29.6716 61.8417,29.3382 61.5,28.5C 61.5,28.1667 61.5,27.8333 61.5,27.5 Z"/></g>
<g><path style="opacity:0.871" fill="#c2c2c5" d="M 35.5,26.5 C 36.404,27.209 36.7373,28.209 36.5,29.5C 36.5,29.8333 36.5,30.1667 36.5,30.5C 34.087,31.6798 33.087,33.6798 33.5,36.5C 32.8333,36.5 32.1667,36.5 31.5,36.5C 31.5,35.1667 31.5,33.8333 31.5,32.5C 31.5,32.1667 31.5,31.8333 31.5,31.5C 33.1042,30.713 33.7709,29.3797 33.5,27.5C 34.1667,27.1667 34.8333,26.8333 35.5,26.5 Z"/></g>
<g><path style="opacity:0.529" fill="#64636d" d="M 2.5,26.5 C 2.5,27.8333 3.16667,28.5 4.5,28.5C 4.5,29.5 4.5,30.5 4.5,31.5C 3.5041,31.5858 2.67076,31.2524 2,30.5C 1.23502,28.9343 1.40168,27.6009 2.5,26.5 Z"/></g>
<g><path style="opacity:0.933" fill="#9f9daa" d="M 23.5,29.5 C 25.2303,30.0256 26.5637,31.0256 27.5,32.5C 27.5,32.8333 27.5,33.1667 27.5,33.5C 26.8333,33.5 26.1667,33.5 25.5,33.5C 24.1283,32.4884 22.795,31.4884 21.5,30.5C 21.8417,29.6618 22.5084,29.3284 23.5,29.5 Z"/></g>
<g><path style="opacity:0.878" fill="#7e7b85" d="M 61.5,28.5 C 61.8417,29.3382 62.5084,29.6716 63.5,29.5C 62.7095,30.4013 61.7095,31.0679 60.5,31.5C 60.1583,30.6618 59.4916,30.3284 58.5,30.5C 58.9731,29.0937 59.9731,28.427 61.5,28.5 Z"/></g>
<g><path style="opacity:1" fill="#9895a1" d="M 4.5,28.5 C 5.22235,29.5511 6.22235,30.2178 7.5,30.5C 7.83333,31.5 8.5,32.1667 9.5,32.5C 9.55688,33.609 9.89022,34.609 10.5,35.5C 8.14746,34.6597 6.14746,33.3264 4.5,31.5C 4.5,30.5 4.5,29.5 4.5,28.5 Z"/></g>
<g><path style="opacity:1" fill="#8e8c97" d="M 7.5,28.5 C 9.75398,29.1237 11.4206,30.457 12.5,32.5C 11.5,32.5 10.5,32.5 9.5,32.5C 8.5,32.1667 7.83333,31.5 7.5,30.5C 7.5,29.8333 7.5,29.1667 7.5,28.5 Z"/></g>
<g><path style="opacity:0.196" fill="#2e2d35" d="M 33.5,27.5 C 33.7709,29.3797 33.1042,30.713 31.5,31.5C 31.6596,29.847 32.3263,28.5137 33.5,27.5 Z"/></g>
<g><path style="opacity:0.965" fill="#87868f" d="M 36.5,30.5 C 36.0075,32.8185 35.0075,34.8185 33.5,36.5C 33.087,33.6798 34.087,31.6798 36.5,30.5 Z"/></g>
<g><path style="opacity:0.843" fill="#9b99a6" d="M 58.5,30.5 C 59.4916,30.3284 60.1583,30.6618 60.5,31.5C 59.8333,31.8333 59.1667,32.1667 58.5,32.5C 58.1667,32.5 57.8333,32.5 57.5,32.5C 56.5,33.1667 55.5,33.8333 54.5,34.5C 54.8333,32.1667 56.1667,30.8333 58.5,30.5 Z"/></g>
<g><path style="opacity:0.863" fill="#9e9ca9" d="M 74.5,29.5 C 75.3382,29.8417 75.6716,30.5084 75.5,31.5C 74.3951,32.6005 73.0618,33.2671 71.5,33.5C 70.8333,33.5 70.5,33.1667 70.5,32.5C 71.4363,31.0256 72.7697,30.0256 74.5,29.5 Z"/></g>
<g><path style="opacity:1" fill="#c3c1ca" d="M 9.5,32.5 C 10.5,32.5 11.5,32.5 12.5,32.5C 12.8333,32.5 13.1667,32.5 13.5,32.5C 13.5,33.5 13.5,34.5 13.5,35.5C 12.5,35.5 11.5,35.5 10.5,35.5C 9.89022,34.609 9.55688,33.609 9.5,32.5 Z"/></g>
<g><path style="opacity:0.006" fill="#08080c" d="M 27.5,32.5 C 28.1667,33.8333 28.8333,35.1667 29.5,36.5C 29.3404,38.153 28.6737,39.4863 27.5,40.5C 27.5,39.8333 27.5,39.1667 27.5,38.5C 27.5,36.8333 27.5,35.1667 27.5,33.5C 27.5,33.1667 27.5,32.8333 27.5,32.5 Z"/></g>
<g><path style="opacity:0.792" fill="#9693a1" d="M 70.5,32.5 C 70.5,33.1667 70.8333,33.5 71.5,33.5C 70.4206,35.543 68.754,36.8763 66.5,37.5C 65.8333,37.5 65.5,37.1667 65.5,36.5C 66.5846,34.4131 68.2512,33.0798 70.5,32.5 Z"/></g>
<g><path style="opacity:0.808" fill="#83828b" d="M 43.5,28.5 C 43.2322,30.099 43.5655,31.4324 44.5,32.5C 44.5979,34.5529 43.9313,36.2196 42.5,37.5C 42.6716,36.5084 42.3382,35.8417 41.5,35.5C 41.7215,32.9327 42.3882,30.5994 43.5,28.5 Z"/></g>
<g><path style="opacity:1" fill="#c1bfc9" d="M 57.5,32.5 C 57.5,35.5 57.5,38.5 57.5,41.5C 54.9791,39.9696 53.9791,37.6363 54.5,34.5C 55.5,33.8333 56.5,33.1667 57.5,32.5 Z"/></g>
<g><path style="opacity:1" fill="#8a8893" d="M 13.5,32.5 C 15.1911,33.8637 16.8577,35.197 18.5,36.5C 15.7524,36.4017 15.0857,37.4017 16.5,39.5C 14.1475,38.6597 12.1475,37.3264 10.5,35.5C 11.5,35.5 12.5,35.5 13.5,35.5C 13.5,34.5 13.5,33.5 13.5,32.5 Z"/></g>
<g><path style="opacity:0.804" fill="#b5b4bc" d="M 25.5,33.5 C 26.1667,33.5 26.8333,33.5 27.5,33.5C 27.5,35.1667 27.5,36.8333 27.5,38.5C 26.8333,38.5 26.1667,38.5 25.5,38.5C 25.5,38.1667 25.5,37.8333 25.5,37.5C 25.5,36.1667 25.5,34.8333 25.5,33.5 Z"/></g>
<g><path style="opacity:1" fill="#92909b" d="M 31.5,36.5 C 32.1667,36.5 32.8333,36.5 33.5,36.5C 33.405,38.7857 32.7384,40.7857 31.5,42.5C 31.5,41.5 31.5,40.5 31.5,39.5C 31.5,38.5 31.5,37.5 31.5,36.5 Z"/></g>
<g><path style="opacity:0.851" fill="#9b99a6" d="M 41.5,35.5 C 42.3382,35.8417 42.6716,36.5084 42.5,37.5C 41.871,40.3973 40.871,43.064 39.5,45.5C 39.1583,44.6618 38.4916,44.3284 37.5,44.5C 38.4617,41.2609 39.7951,38.2609 41.5,35.5 Z"/></g>
<g><path style="opacity:0.988" fill="#a1a0aa" d="M 18.5,36.5 C 20.0269,36.427 21.0269,37.0937 21.5,38.5C 20.5041,38.5858 19.6708,38.2524 19,37.5C 18.5172,38.448 18.3505,39.448 18.5,40.5C 17.5084,40.6716 16.8417,40.3382 16.5,39.5C 15.0857,37.4017 15.7524,36.4017 18.5,36.5 Z"/></g>
<g><path style="opacity:0.886" fill="#868393" d="M 65.5,36.5 C 65.5,37.1667 65.8333,37.5 66.5,37.5C 66.1667,38.5 65.5,39.1667 64.5,39.5C 64.1583,38.6618 63.4916,38.3284 62.5,38.5C 62.9731,37.0937 63.9731,36.427 65.5,36.5 Z"/></g>
<g><path style="opacity:1" fill="#bebcc7" d="M 21.5,38.5 C 22.4916,38.3284 23.1583,38.6618 23.5,39.5C 23.5,40.1667 23.8333,40.5 24.5,40.5C 24.8417,41.3382 25.5084,41.6716 26.5,41.5C 26.5,41.8333 26.5,42.1667 26.5,42.5C 25.5,42.5 24.5,42.5 23.5,42.5C 22.0697,41.4625 20.403,40.7959 18.5,40.5C 18.3505,39.448 18.5172,38.448 19,37.5C 19.6708,38.2524 20.5041,38.5858 21.5,38.5 Z"/></g>
<g><path style="opacity:0.855" fill="#acaab5" d="M 25.5,38.5 C 26.1667,38.5 26.8333,38.5 27.5,38.5C 27.5,39.1667 27.5,39.8333 27.5,40.5C 27.5,41.1667 27.1667,41.5 26.5,41.5C 25.5084,41.6716 24.8417,41.3382 24.5,40.5C 25.3382,40.1583 25.6716,39.4916 25.5,38.5 Z"/></g>
<g><path style="opacity:0.988" fill="#919099" d="M 31.5,32.5 C 31.5,33.8333 31.5,35.1667 31.5,36.5C 31.5,37.5 31.5,38.5 31.5,39.5C 30.2719,40.3065 29.2719,41.3065 28.5,42.5C 27.8333,42.8333 27.1667,43.1667 26.5,43.5C 26.5,43.1667 26.5,42.8333 26.5,42.5C 26.5,42.1667 26.5,41.8333 26.5,41.5C 27.1667,41.5 27.5,41.1667 27.5,40.5C 28.6737,39.4863 29.3404,38.153 29.5,36.5C 29.6596,34.847 30.3263,33.5137 31.5,32.5 Z"/></g>
<g><path style="opacity:0.531" fill="#625f6a" d="M 57.5,32.5 C 57.8333,32.5 58.1667,32.5 58.5,32.5C 57.9898,35.3878 58.6565,37.7211 60.5,39.5C 60.1667,40.1667 59.8333,40.8333 59.5,41.5C 58.8333,41.5 58.1667,41.5 57.5,41.5C 57.5,38.5 57.5,35.5 57.5,32.5 Z"/></g>
<g><path style="opacity:0.039" fill="#0a0a17" d="M 25.5,37.5 C 25.5,37.8333 25.5,38.1667 25.5,38.5C 25.6716,39.4916 25.3382,40.1583 24.5,40.5C 23.8333,40.5 23.5,40.1667 23.5,39.5C 24.1667,38.8333 24.8333,38.1667 25.5,37.5 Z"/></g>
<g><path style="opacity:0.935" fill="#9593a1" d="M 54.5,34.5 C 53.9791,37.6363 54.9791,39.9696 57.5,41.5C 58.1667,41.5 58.8333,41.5 59.5,41.5C 59.5,41.8333 59.5,42.1667 59.5,42.5C 57.7768,43.807 55.9435,43.807 54,42.5C 53.1993,39.633 53.3659,36.9664 54.5,34.5 Z"/></g>
<g><path style="opacity:0.918" fill="#9f9cac" d="M 62.5,38.5 C 63.4916,38.3284 64.1583,38.6618 64.5,39.5C 63.1007,40.8897 61.4341,41.8897 59.5,42.5C 59.5,42.1667 59.5,41.8333 59.5,41.5C 59.8333,40.8333 60.1667,40.1667 60.5,39.5C 61.1667,39.1667 61.8333,38.8333 62.5,38.5 Z"/></g>
<g><path style="opacity:1" fill="#d3d2d9" d="M 31.5,39.5 C 31.5,40.5 31.5,41.5 31.5,42.5C 30.3478,43.625 29.3478,43.625 28.5,42.5C 29.2719,41.3065 30.2719,40.3065 31.5,39.5 Z"/></g>
<g><path style="opacity:0.784" fill="#92919d" d="M 18.5,40.5 C 20.403,40.7959 22.0697,41.4625 23.5,42.5C 23.5,42.8333 23.5,43.1667 23.5,43.5C 21.0672,43.7271 19.4006,42.7271 18.5,40.5 Z"/></g>
<g><path style="opacity:0.004" fill="#100f1a" d="M 23.5,43.5 C 23.5,43.1667 23.5,42.8333 23.5,42.5C 24.5,42.5 25.5,42.5 26.5,42.5C 26.5,42.8333 26.5,43.1667 26.5,43.5C 26.5,44.1667 26.5,44.8333 26.5,45.5C 25.7777,44.4489 24.7777,43.7822 23.5,43.5 Z"/></g>
<g><path style="opacity:1" fill="#84828c" d="M 28.5,42.5 C 29.3478,43.625 30.3478,43.625 31.5,42.5C 31.8333,43.1667 32.1667,43.8333 32.5,44.5C 31.325,44.281 30.325,44.6143 29.5,45.5C 29.9569,46.2975 30.6236,46.6309 31.5,46.5C 29.5453,47.9302 27.8786,47.5969 26.5,45.5C 26.5,44.8333 26.5,44.1667 26.5,43.5C 27.1667,43.1667 27.8333,42.8333 28.5,42.5 Z"/></g>
<g><path style="opacity:0.871" fill="#c5c3ce" d="M 32.5,44.5 C 34.1667,44.5 35.8333,44.5 37.5,44.5C 38.4916,44.3284 39.1583,44.6618 39.5,45.5C 37.0521,46.4731 34.3854,46.8064 31.5,46.5C 30.6236,46.6309 29.9569,46.2975 29.5,45.5C 30.325,44.6143 31.325,44.281 32.5,44.5 Z"/></g>
</svg>
